<svg width="1570" height="500" viewBox="0 0 1570 500" fill="none" xmlns="http://www.w3.org/2000/svg">
<path d="M217.426 129.015C217.652 127.994 217.964 126.539 218.326 124.853C219.512 119.322 221.229 111.313 222.201 108.064C222.857 105.873 224.613 105.569 227.009 106.485C230.599 107.857 234.633 111.42 237.464 114.45C240.336 117.523 242.635 121.044 243.251 124.798C243.767 128.5 243.194 130.826 242.263 134.612C242.07 135.397 241.861 136.245 241.644 137.181C238.906 150.436 214.217 250.362 204.401 290.003C219.24 298.705 235.695 301.825 243.431 301.893C244.972 301.978 246.492 302.031 247.991 302.053C249.396 292.888 250.823 285.369 251.666 281.277C263.412 223.072 282.038 178.246 290.713 157.368C291.271 156.025 291.788 154.781 292.259 153.639C292.264 153.63 292.309 153.523 292.392 153.326C293.719 150.171 304.667 124.145 311.699 116.047C314.984 112.1 319.539 108.994 323.579 111.482C325.964 112.961 329.08 117.606 330.397 119.569C330.737 120.075 330.957 120.403 331.014 120.452C334.876 126.444 331.644 132.812 326.45 143.042C324.354 147.173 321.937 151.933 319.539 157.552C314.467 167.959 292.936 218.32 281.239 261.087C277.472 273.644 274.066 286.499 271.152 299.77C288.766 295.858 302.62 287.34 313.134 277.329C331.796 259.689 338.218 244.796 341.124 235.939C341.659 234.309 343.068 233.828 344.277 233.985C345.662 233.958 350.549 237.375 352.118 239.652C353.083 241.055 353.294 242.254 353.531 243.602L353.532 243.613L353.537 243.637C353.556 243.747 353.576 243.858 353.596 243.97L353.612 244.058C355.002 251.684 352.184 262.754 344.959 274.581C342.551 279.386 319.248 317.736 266.431 324.365C265.398 330.664 264.484 337.064 263.701 343.578C262.089 355.305 260.779 378.441 260.95 380.05C260.742 382.742 260.552 383.412 258.909 383.387C252.875 383.387 244.642 374.23 243.973 353.234C243.655 344.471 244.176 334.643 245.093 325.053C231.999 323.767 214.503 318.226 199.48 310.26C198.503 314.499 196.978 320.933 195.306 327.989L195.301 328.011L195.299 328.017C191.827 342.668 187.72 359.991 186.565 365.926C185.876 369.844 185.336 372.641 184.9 374.898C184.333 377.837 183.942 379.861 183.628 382.259C183.555 382.687 183.488 383.09 183.425 383.469L183.424 383.477L183.422 383.486C182.631 388.23 182.449 389.318 180.155 389.641C172.539 388.227 166.157 377.873 167.754 363.469C168.735 351.621 174.692 321.155 179.642 296.679C172.687 290.336 142.405 260.706 131.482 202.535C130.519 198.019 128.061 176.955 132.91 173.461C134.237 172.132 137.151 172.547 138.902 172.986C141.638 173.673 145.715 176.417 146.553 177.253C149.366 179.84 150.172 185.323 151.044 191.254C151.294 192.953 151.549 194.688 151.858 196.403C153.436 205.429 155.495 213.149 156.533 217.039C156.796 218.029 156.994 218.77 157.101 219.223C165.629 249.697 175.891 263.649 184.46 273.021C185.389 268.444 186.071 265.028 186.377 263.294C191.559 241.038 217.332 129.436 217.426 129.015Z" fill="#231F20"/>
<path d="M343.465 207.737C333.211 199.557 338.491 188.541 342.473 184.786C345.09 182.282 348.461 180.582 351.688 179.892C362.952 177.616 371.082 185.402 371.813 194.482C372.272 203.625 363.521 208.228 362.374 208.707C352.941 213.348 346.114 209.707 343.465 207.737Z" fill="#231F20"/>
<path d="M1277.22 191.907V315.267C1277.22 320.431 1274.5 322.899 1272.14 325.043C1270.33 326.689 1268.73 328.145 1268.73 330.483V331.186C1268.73 333.292 1270.57 334.697 1273.55 334.697H1308.42C1311.4 334.697 1313.46 333.292 1313.46 331.186V330.483C1313.46 328.145 1311.69 326.689 1309.68 325.043C1307.07 322.899 1304.06 320.431 1304.06 315.267V163.114C1304.06 159.604 1301.08 156.793 1295.8 159.37L1273.64 170.53C1270.62 172.075 1269.51 173.341 1269.51 175.446V175.797C1269.51 176.99 1270.42 177.638 1271.62 178.485C1273.89 180.088 1277.16 182.405 1277.16 190.472L1277.22 191.907Z" fill="#231F20"/>
<path d="M760.156 185.352C760.156 195.652 752.816 202.908 741.575 202.908C730.106 202.908 722.536 195.652 722.536 185.352C722.536 175.286 730.106 167.796 741.575 167.796C752.816 167.796 760.156 175.286 760.156 185.352Z" fill="#231F20"/>
<path d="M597.275 334.697H561.489C558.507 334.697 556.672 333.526 556.672 331.42V330.718C556.672 328.509 558.233 327.032 560.017 325.345C562.392 323.099 565.16 320.481 565.16 315.267V187.928C565.16 182.714 562.392 180.096 560.017 177.851C558.233 176.164 556.672 174.687 556.672 172.478V171.775C556.672 169.67 558.507 168.499 561.489 168.499H597.275C600.256 168.499 602.092 169.67 602.092 171.775V172.478C602.092 174.687 600.446 176.164 598.566 177.851C596.064 180.096 593.146 182.714 593.146 187.928L592.916 243.874H667.711V187.928C667.711 182.714 664.943 180.096 662.568 177.851C660.785 176.164 659.223 174.687 659.223 172.478V171.775C659.223 169.67 661.059 168.499 664.042 168.499H699.829C702.81 168.499 704.875 169.67 704.875 171.775V172.478C704.875 174.687 703.145 176.164 701.169 177.851C698.537 180.096 695.47 182.714 695.47 187.928V315.267C695.47 320.481 698.537 323.099 701.169 325.345C703.145 327.032 704.875 328.509 704.875 330.718V331.42C704.875 333.526 702.81 334.697 699.829 334.697H664.042C661.059 334.697 659.223 333.526 659.223 331.42V330.718C659.223 328.509 660.785 327.032 662.568 325.345C664.943 323.099 667.711 320.481 667.711 315.267V256.748H593.146L592.916 315.267C592.916 320.481 595.909 323.099 598.476 325.345C600.404 327.032 602.092 328.509 602.092 330.718V331.42C602.092 333.526 600.256 334.697 597.275 334.697Z" fill="#231F20"/>
<path fill-rule="evenodd" clip-rule="evenodd" d="M784.014 334.697H820.031C822.784 334.697 824.847 333.292 824.847 331.186V330.483C824.847 328.53 823.21 327.147 821.301 325.535C818.635 323.284 815.442 320.587 815.442 315.267V279.453H837.464C878.757 279.453 903.99 258.151 903.99 222.571C903.99 183.48 870.957 168.499 831.5 168.499H784.014C780.803 168.499 778.967 169.67 778.967 171.775V172.712C778.967 174.824 780.577 176.331 782.413 178.051C784.85 180.333 787.685 182.988 787.685 187.928V315.267C787.685 320.587 784.725 323.284 782.255 325.535C780.486 327.147 778.967 328.53 778.967 330.483V331.186C778.967 333.292 780.803 334.697 784.014 334.697ZM824.39 267.748C818.195 267.748 815.442 264.238 815.442 258.385V189.097C815.442 183.48 817.735 180.202 822.094 180.202H831.5C853.752 180.202 875.544 196.354 875.544 229.36C875.544 252.066 861.322 267.748 837.464 267.748H824.39Z" fill="#231F20"/>
<path fill-rule="evenodd" clip-rule="evenodd" d="M970.287 317.375C984.739 317.375 995.062 309.649 999.649 300.286C1002.17 297.009 1007.45 297.946 1006.99 302.628C1004.93 316.438 989.556 337.036 960.424 337.036C929.684 337.036 906.054 313.862 906.054 277.58C906.054 244.106 930.601 219.997 960.881 219.997C990.474 219.997 1003.78 238.021 1003.78 254.406C1003.78 263.301 999.191 268.217 992.079 270.793L936.566 291.625C942.3 307.543 953.999 317.375 970.287 317.375ZM978.087 255.343C978.087 245.745 969.599 228.892 956.293 228.892C941.84 228.892 932.665 244.574 932.665 267.046C932.665 272.43 933.125 277.346 934.043 282.027L972.123 265.174C976.251 263.301 978.087 260.024 978.087 255.343Z" fill="#231F20"/>
<path fill-rule="evenodd" clip-rule="evenodd" d="M1076.04 337.036C1109.3 337.036 1131.32 311.288 1131.32 279.219C1131.32 246.916 1107.01 219.997 1070.76 219.997C1039.33 219.997 1013.87 244.106 1013.87 277.346C1013.87 308.478 1037.04 337.036 1076.04 337.036ZM1079.48 328.141C1056.31 328.141 1040.94 297.243 1040.94 268.217C1040.94 242.468 1051.49 228.892 1067.78 228.892C1088.89 228.892 1104.26 256.045 1104.26 288.817C1104.26 314.096 1093.7 328.141 1079.48 328.141Z" fill="#231F20"/>
<path fill-rule="evenodd" clip-rule="evenodd" d="M1171.7 237.787C1178.12 226.55 1190.74 219.997 1205.88 219.997C1233.41 219.997 1259.1 241.063 1259.1 276.643C1259.1 312.225 1235.01 337.036 1206.11 337.036C1193.49 337.036 1183.4 332.589 1175.83 324.631V367C1175.83 372.377 1178.93 374.975 1181.57 377.187C1183.53 378.828 1185.23 380.256 1185.23 382.448V383.15C1185.23 385.492 1183.17 386.663 1180.19 386.663H1145.32C1142.33 386.663 1140.27 385.492 1140.27 383.15V382.448C1140.27 380.256 1141.85 378.828 1143.66 377.187C1146.11 374.975 1148.99 372.377 1148.99 367V250.545C1148.99 242.478 1145.77 240.262 1143.55 238.729C1142.37 237.918 1141.47 237.297 1141.47 236.103V235.755C1141.47 233.647 1142.58 232.384 1145.6 230.839L1164.36 221.166C1169.86 218.358 1171.93 220.932 1171.93 224.913L1171.7 237.787ZM1175.83 294.901C1175.83 311.991 1188.9 328.141 1202.9 328.141C1221.02 328.141 1232.03 312.693 1232.03 285.306C1232.03 251.832 1218.95 228.892 1199.22 228.892C1187.53 228.892 1177.43 238.489 1175.83 251.598V294.901Z" fill="#231F20"/>
<path fill-rule="evenodd" clip-rule="evenodd" d="M1386.41 317.375C1400.86 317.375 1411.18 309.649 1415.77 300.286C1418.3 297.009 1423.57 297.946 1423.11 302.628C1421.05 316.438 1405.68 337.036 1376.55 337.036C1345.81 337.036 1322.18 313.862 1322.18 277.58C1322.18 244.106 1346.72 219.997 1377 219.997C1406.6 219.997 1419.9 238.021 1419.9 254.406C1419.9 263.301 1415.31 268.217 1408.2 270.793L1352.69 291.625C1358.42 307.543 1370.12 317.375 1386.41 317.375ZM1394.21 255.343C1394.21 245.745 1385.72 228.892 1372.42 228.892C1357.96 228.892 1348.79 244.574 1348.79 267.046C1348.79 272.43 1349.25 277.346 1350.16 282.027L1388.24 265.174C1392.37 263.301 1394.21 260.024 1394.21 255.343Z" fill="#231F20"/>
<path d="M728.246 253.383V315.268C728.246 320.431 725.53 322.899 723.171 325.043C721.359 326.689 719.758 328.145 719.758 330.484V331.186C719.758 333.292 721.593 334.697 724.575 334.697H759.443C762.427 334.697 764.49 333.292 764.49 331.186V330.484C764.49 328.145 762.715 326.689 760.708 325.043C758.094 322.899 755.084 320.431 755.084 315.268V224.592C755.084 221.079 752.103 218.271 746.827 220.845L725.292 231.751C722.273 233.297 721.163 234.561 721.163 236.667V237.017C721.163 238.21 722.011 238.889 723.121 239.777C725.219 241.456 728.252 243.883 728.252 251.95L728.246 253.383Z" fill="#231F20"/>
</svg>
